<svg id="s3" viewBox="0 0 100 100" xmlns="http://www.w3.org/2000/svg">
    <defs/>
    <defs>
        <linearGradient id="a" x1="0" x2="1" y1="1" y2="0">
            <stop offset="0%" stop-color="#1B660F"/>
            <stop offset="100%" stop-color="#6CAE3E"/>
        </linearGradient>
    </defs>
    <g>
        <path d="m 0,0 h 100 v 100 h -100 z" fill="url(#a)" fill-rule="evenodd"/>
        <path d="m 76.045,53.616 0.48,-3.38 c 4.426,2.651 4.484,3.746 4.482,3.776 -0.007,0.006 -0.763,0.636 -4.962,-0.396 z m -2.429,-0.675 c -7.65,-2.315 -18.304,-7.202 -22.615,-9.24 0,-0.018 0.005,-0.034 0.005,-0.051 0,-1.656 -1.348,-3.004 -3.005,-3.004 -1.655,0 -3.003,1.348 -3.002,3.004 0,1.656 1.348,3.004 3.002,3.003 0.727,0 1.388,-0.271 1.909,-0.702 5.072,2.401 15.644,7.218 23.35,9.492 l -3.048,21.508 c -0.009,0.059 -0.013,0.117 -0.012,0.176 0,1.894 -8.384,5.373 -22.083,5.373 -13.844,0 -22.316,-3.479 -22.316,-5.373 0,-0.057 -0.004,-0.114 -0.011,-0.17 l -6.368,-46.509 c 5.511,3.794 17.365,5.801 28.703,5.802 11.32,0 23.154,-2 28.676,-5.783 z m -54.866,-27.344 c 0.09,-1.645 9.543,-8.098 29.375,-8.097 19.83,0 29.284,6.451 29.375,8.097 v 0.561 c -1.087,3.689 -13.338,7.591 -29.375,7.592 -16.065,0 -28.321,-3.915 -29.375,-7.609 z m 61.25,0.028 c 0,-4.331 -12.417,-10.625 -31.875,-10.625 -19.457,0 -31.875,6.294 -31.875,10.625 l 0.117,0.942 6.935,50.655 c 0.166,5.665 15.274,7.778 24.815,7.778 11.84,0 24.419,-2.723 24.582,-7.774 l 2.995,-21.121 c 1.666,0.399 3.038,0.603 4.138,0.602 1.479,0 2.479,-0.361 3.085,-1.084 0.498,-0.593 0.688,-1.31 0.545,-2.073 -0.324,-1.73 -2.377,-3.595 -6.56,-5.982 l 2.97,-20.952 z"
              fill="#fff"
              fill-rule="evenodd"/>
    </g>
</svg>