<svg id="sns" viewBox="0 0 100 100" xmlns="http://www.w3.org/2000/svg">
    <defs/>
    <defs>
        <linearGradient id="a" x1="0" x2="1" y1="1" y2="0">
            <stop offset="0%" stop-color="#B0084D"/>
            <stop offset="100%" stop-color="#FF4F8B"/>
        </linearGradient>
    </defs>
    <g>
        <path d="m 0,0 h 100 v 100 h -100 z" fill="url(#a)" fill-rule="evenodd"/>
        <path d="m 21.25,47.5 c 1.379,0 2.5,1.121 2.5,2.5 0,1.379 -1.121,2.5 -2.5,2.5 -1.379,0 -2.5,-1.121 -2.5,-2.5 0,-1.379 1.121,-2.5 2.5,-2.5 z m 30,32.5 c -14.607,0 -27.139,-10.668 -29.758,-25.025 2.214,-0.107 4.041,-1.651 4.579,-3.725 h 7.679 v -2.5 h -7.679 c -0.537,-2.072 -2.364,-3.616 -4.577,-3.725 2.612,-14.138 15.395,-25.025 29.756,-25.025 5.391,0 11.04,2.028 16.786,6.026 l 1.428,-2.052 c -6.172,-4.295 -12.301,-6.474 -18.214,-6.474 -15.913,0 -30.064,12.331 -32.421,28.151 -1.53,0.858 -2.579,2.474 -2.579,4.349 0,1.875 1.049,3.491 2.579,4.348 2.384,16.079 16.241,28.152 32.421,28.152 6.759,0 13.678,-2.304 19.481,-6.486 l -1.462,-2.028 c -5.381,3.879 -11.78,6.014 -18.019,6.014 z m -13.624,-34.447 c 2.317,0.566 5.218,0.698 7.374,0.697 2.052,0 4.779,-0.119 7.036,-0.617 l -5.655,11.308 c -0.086,0.173 -0.131,0.365 -0.131,0.559 v 5.566 c -1.001,0.639 -2.709,1.699 -3.75,1.917 v -7.483 c 0,-0.165 -0.033,-0.329 -0.096,-0.481 z m 7.374,-4.303 c 5.031,0 7.718,0.755 8.551,1.25 -0.834,0.495 -3.52,1.25 -8.551,1.25 -5.031,0 -7.718,-0.755 -8.551,-1.25 0.834,-0.495 3.52,-1.25 8.551,-1.25 z m -3.75,26.25 h 1.25 c 0.054,0 0.107,-0.004 0.16,-0.01 1.53,-0.199 3.476,-1.381 5.18,-2.474 l 0.329,-0.21 c 0.361,-0.23 0.581,-0.629 0.581,-1.056 v -5.955 l 6.949,-13.895 c 0.343,-0.399 0.551,-0.858 0.551,-1.4 0,-3.262 -7.049,-3.75 -11.25,-3.75 -4.201,0 -11.25,0.488 -11.25,3.75 0,0.458 0.15,0.855 0.4,1.209 l 5.85,14.041 v 8.5 c 0,0.69 0.559,1.25 1.25,1.25 z m 36.25,-1.25 c 1.379,0 2.5,1.121 2.5,2.5 0,1.379 -1.121,2.5 -2.5,2.5 -1.379,0 -2.5,-1.121 -2.5,-2.5 0,-1.379 1.121,-2.5 2.5,-2.5 z m 0,-37.5 c 1.379,0 2.5,1.121 2.5,2.5 0,1.379 -1.121,2.5 -2.5,2.5 -1.379,0 -2.5,-1.121 -2.5,-2.5 0,-1.379 1.121,-2.5 2.5,-2.5 z m 2.5,18.75 c 1.379,0 2.5,1.121 2.5,2.5 0,1.379 -1.121,2.5 -2.5,2.5 -1.379,0 -2.5,-1.121 -2.5,-2.5 0,-1.379 1.121,-2.5 2.5,-2.5 z m -12.5,3.75 h 7.679 c 0.557,2.15 2.499,3.75 4.821,3.75 2.757,0 5,-2.243 5,-5 0,-2.757 -2.243,-5 -5,-5 -2.323,0 -4.264,1.6 -4.821,3.75 h -7.679 v -16.25 h 5.179 c 0.557,2.15 2.499,3.75 4.821,3.75 2.757,0 5,-2.243 5,-5 0,-2.757 -2.243,-5 -5,-5 -2.323,0 -4.264,1.6 -4.821,3.75 h -6.429 c -0.691,0 -1.25,0.56 -1.25,1.25 v 17.5 h -8.75 v 2.5 h 8.75 v 17.5 c 0,0.69 0.559,1.25 1.25,1.25 h 6.429 c 0.557,2.15 2.499,3.75 4.821,3.75 2.757,0 5,-2.243 5,-5 0,-2.757 -2.243,-5 -5,-5 -2.323,0 -4.264,1.6 -4.821,3.75 h -5.179 z"
              fill="#fff"
              fill-rule="evenodd"/>
    </g>
</svg>