<svg id="sns" viewBox="0 0 100 100" xmlns="http://www.w3.org/2000/svg">
    <defs/>
    <defs>
        <linearGradient id="a" x1="0" x2="1" y1="1" y2="0">
            <stop offset="0%" stop-color="#B0084D"/>
            <stop offset="100%" stop-color="#FF4F8B"/>
        </linearGradient>
    </defs>
    <g>
        <path d="m 0,0 h 100 v 100 h -100 z" fill="url(#a)" fill-rule="evenodd"/>
        <path d="m 35.896,54.61 3.753,-3.708 c 0.235,-0.232 0.368,-0.548 0.369,-0.877 10e-4,-0.329 -0.13,-0.646 -0.364,-0.88 l -3.753,-3.75 -1.773,1.753 1.609,1.609 h -5.726 v 2.486 h 5.746 l -1.624,1.604 z m 28.639,0.113 5.003,-3.731 c 0.313,-0.235 0.499,-0.603 0.499,-0.993 0,-0.391 -0.186,-0.761 -0.5,-0.996 l -5.004,-3.726 -1.501,1.989 2.002,1.491 h -5.003 v 2.486 h 5.001 l -2.001,1.491 z m -20.525,-4.723 c 0,2.638 -0.457,5.127 -1.309,7.292 2.25,-0.865 4.788,-1.297 7.323,-1.298 2.535,0 5.073,0.432 7.322,1.298 -0.852,-2.165 -1.308,-4.653 -1.308,-7.292 0,-2.638 0.457,-5.125 1.308,-7.292 -4.499,1.729 -10.145,1.729 -14.645,0 0.853,2.166 1.31,4.653 1.309,7.292 z m -6.127,12.064 c -0.244,-0.242 -0.366,-0.561 -0.367,-0.879 0,-0.318 0.123,-0.636 0.367,-0.878 2.27,-2.256 3.626,-6.11 3.626,-10.307 0,-4.197 -1.356,-8.051 -3.626,-10.307 -0.244,-0.242 -0.366,-0.561 -0.367,-0.878 0,-0.318 0.123,-0.636 0.367,-0.879 0.489,-0.486 1.28,-0.486 1.768,0 4.847,4.816 15.899,4.816 20.746,0 0.489,-0.486 1.28,-0.486 1.769,0 0.244,0.242 0.366,0.561 0.366,0.879 0,0.318 -0.123,0.636 -0.366,0.878 -2.27,2.256 -3.626,6.11 -3.626,10.307 0,4.197 1.356,8.051 3.626,10.307 0.244,0.242 0.366,0.561 0.366,0.878 0,0.318 -0.123,0.636 -0.366,0.879 -0.244,0.242 -0.564,0.364 -0.885,0.364 -0.32,0 -0.64,-0.122 -0.884,-0.364 -4.847,-4.816 -15.899,-4.816 -20.746,0 -0.489,0.486 -1.28,0.486 -1.768,0 z m 44.618,-12.058 c 0,-1.158 -0.454,-2.247 -1.278,-3.066 -0.851,-0.846 -1.969,-1.268 -3.086,-1.267 -1.117,0 -2.235,0.421 -3.086,1.267 -1.702,1.69 -1.702,4.441 0,6.132 1.701,1.69 4.468,1.691 6.172,0 0.824,-0.819 1.278,-1.908 1.278,-3.066 z m 0.491,4.824 c -1.338,1.33 -3.096,1.995 -4.855,1.994 -1.759,0 -3.516,-0.665 -4.854,-1.994 -2.678,-2.66 -2.678,-6.987 0,-9.647 2.678,-2.662 7.033,-2.66 9.709,0 2.678,2.66 2.678,6.987 0,9.647 z m -56.767,-4.795 c 0,-1.158 -0.454,-2.247 -1.278,-3.066 -0.824,-0.819 -1.92,-1.27 -3.086,-1.27 -1.164,0 -2.26,0.451 -3.086,1.27 -0.824,0.819 -1.277,1.908 -1.277,3.066 0,1.157 0.453,2.246 1.277,3.066 1.65,1.637 4.523,1.637 6.172,0 0.824,-0.82 1.278,-1.909 1.278,-3.066 z m 0.49,4.823 c -1.338,1.33 -3.096,1.995 -4.854,1.995 -1.757,0 -3.515,-0.665 -4.854,-1.995 -2.675,-2.66 -2.675,-6.987 0,-9.647 2.678,-2.66 7.032,-2.66 9.708,0 2.677,2.66 2.677,6.987 0,9.647 z m 41.905,13.712 c -4.993,4.963 -11.634,7.694 -18.696,7.694 -7.065,0 -13.704,-2.732 -18.697,-7.694 -3.425,-3.402 -5.31,-7.467 -6.288,-10.277 l -2.364,0.813 c 1.064,3.057 3.122,7.485 6.883,11.221 5.466,5.432 12.733,8.423 20.466,8.423 7.731,0 14.998,-2.99 20.464,-8.423 3.158,-3.136 5.674,-7.123 7.086,-11.225 l -2.366,-0.805 c -1.291,3.751 -3.595,7.4 -6.488,10.273 z m -43.682,-26.862 -2.362,-0.815 c 1.513,-4.33 3.96,-8.317 6.89,-11.227 5.464,-5.427 12.728,-8.416 20.458,-8.416 7.73,0 14.995,2.989 20.457,8.416 3.083,3.064 5.669,7.155 7.091,11.227 l -2.362,0.815 c -1.305,-3.728 -3.672,-7.477 -6.498,-10.284 -4.989,-4.959 -11.627,-7.688 -18.688,-7.688 -7.062,0 -13.699,2.729 -18.69,7.688 -2.667,2.651 -4.903,6.304 -6.296,10.284 z"
              fill="#fff"
              fill-rule="evenodd"/>
    </g>
</svg>